<svg viewBox="0 0 40 40" fill="none" xmlns="http://www.w3.org/2000/svg">
<path fill-rule="evenodd" clip-rule="evenodd" d="M2.08301 3.33337C2.08301 2.64302 2.64265 2.08337 3.33301 2.08337H36.6663C37.3567 2.08337 37.9163 2.64302 37.9163 3.33337C37.9163 4.02373 37.3567 4.58337 36.6663 4.58337H34.583V20.45C34.583 20.5381 34.583 20.6249 34.5831 20.7107C34.5841 22.6886 34.5848 24.0643 34.0243 25.2987C33.4639 26.5329 32.4275 27.4381 30.9372 28.7398C30.8726 28.7962 30.8071 28.8534 30.7408 28.9114L27.3441 31.8814C25.8292 33.206 24.6031 34.2781 23.518 35.0083C22.3884 35.7684 21.2824 36.25 19.9997 36.25C18.7169 36.25 17.6109 35.7684 16.4814 35.0083C15.3963 34.2781 14.1701 33.206 12.6552 31.8814L9.2585 28.9114C9.19219 28.8534 9.12674 28.7962 9.06214 28.7398C7.57182 27.4381 6.53549 26.5329 5.97503 25.2987C5.41451 24.0643 5.41522 22.6886 5.41625 20.7107C5.4163 20.6249 5.41634 20.5381 5.41634 20.45V4.58337H3.33301C2.64265 4.58337 2.08301 4.02373 2.08301 3.33337ZM7.91634 4.58337V20.45C7.91634 22.7946 7.94247 23.5848 8.25133 24.265C8.56024 24.9453 9.13833 25.4854 10.9041 27.0294L14.2374 29.9439C15.8309 31.3372 16.9389 32.3028 17.8771 32.9342C18.786 33.5458 19.4038 33.75 19.9997 33.75C20.5956 33.75 21.2133 33.5458 22.1223 32.9342C23.0605 32.3028 24.1685 31.3372 25.7619 29.9439L29.0953 27.0294C30.861 25.4854 31.4391 24.9453 31.748 24.265C32.0569 23.5848 32.083 22.7946 32.083 20.45V4.58337H7.91634ZM12.9163 13.3334C12.9163 12.643 13.476 12.0834 14.1663 12.0834H25.833C26.5234 12.0834 27.083 12.643 27.083 13.3334C27.083 14.0237 26.5234 14.5834 25.833 14.5834H14.1663C13.476 14.5834 12.9163 14.0237 12.9163 13.3334ZM12.9163 21.6667C12.9163 20.9764 13.476 20.4167 14.1663 20.4167H25.833C26.5234 20.4167 27.083 20.9764 27.083 21.6667C27.083 22.3571 26.5234 22.9167 25.833 22.9167H14.1663C13.476 22.9167 12.9163 22.3571 12.9163 21.6667Z" fill="currentColor"/>
</svg>
