<svg viewBox="0 0 40 40" fill="none" xmlns="http://www.w3.org/2000/svg">
<path fill-rule="evenodd" clip-rule="evenodd" d="M19.9996 4.83419C19.8013 5.12835 19.5571 5.56199 19.1935 6.21425L18.975 6.60616C18.9588 6.63526 18.9421 6.66567 18.9248 6.69715C18.7438 7.02599 18.498 7.47269 18.092 7.78086C17.6786 8.09472 17.18 8.20447 16.8235 8.28294C16.7897 8.29039 16.7571 8.29755 16.726 8.30459L16.3018 8.40058C15.5265 8.57599 15.0433 8.68828 14.7187 8.80177C14.9194 9.10337 15.2564 9.50174 15.803 10.1409L16.0922 10.4791C16.1135 10.504 16.1356 10.5297 16.1585 10.5562C16.4048 10.8412 16.7324 11.2204 16.8838 11.7073C17.0336 12.1892 16.9829 12.6877 16.9441 13.0687C16.9405 13.1043 16.937 13.1389 16.9337 13.1723L16.89 13.6235C16.8119 14.4296 16.7638 14.951 16.7651 15.3199C17.0855 15.2064 17.5243 15.007 18.1939 14.6987L18.5911 14.5158C18.6203 14.5024 18.6509 14.4881 18.6828 14.4731C19.0126 14.3188 19.4803 14.0999 19.9996 14.0999C20.5188 14.0999 20.9866 14.3188 21.3163 14.4731C21.3482 14.4881 21.3788 14.5024 21.408 14.5158L21.8052 14.6987C22.4749 15.007 22.9137 15.2064 23.234 15.3199C23.2354 14.951 23.1872 14.4296 23.1091 13.6235L23.0654 13.1723C23.0622 13.1389 23.0587 13.1043 23.055 13.0687C23.0163 12.6877 22.9655 12.1892 23.1154 11.7073C23.2668 11.2204 23.5944 10.8412 23.8406 10.5562C23.8635 10.5297 23.8857 10.504 23.907 10.4791L24.1962 10.1409C24.7428 9.50174 25.0797 9.10337 25.2805 8.80177C24.9558 8.68828 24.4727 8.57599 23.6974 8.40058L23.2731 8.30459C23.242 8.29755 23.2095 8.29039 23.1756 8.28294C22.8192 8.20447 22.3206 8.09472 21.9071 7.78086C21.5012 7.47268 21.2553 7.02598 21.0744 6.69715C21.0571 6.66566 21.0403 6.63526 21.0241 6.60616L20.8056 6.21425C20.442 5.56199 20.1978 5.12835 19.9996 4.83419ZM23.5878 15.417C23.5897 15.4171 23.5907 15.4172 23.5907 15.4172L23.5878 15.417ZM16.4085 15.4172C16.4085 15.4172 16.4095 15.4171 16.4114 15.417L16.4085 15.4172ZM18.1381 3.14144C18.4976 2.67206 19.0845 2.08337 19.9996 2.08337C20.9146 2.08337 21.5015 2.67206 21.861 3.14144C22.2071 3.59343 22.5614 4.22923 22.9468 4.9207C22.9609 4.94606 22.9751 4.97149 22.9893 4.997L23.2078 5.3889C23.2691 5.49893 23.3165 5.58399 23.3587 5.6569C23.387 5.7059 23.4092 5.74292 23.427 5.77148C23.4551 5.77923 23.4905 5.78842 23.536 5.79949C23.6143 5.81857 23.7055 5.83922 23.8248 5.86622L24.2491 5.96221C24.278 5.96876 24.3069 5.97528 24.3356 5.98179C25.0805 6.15019 25.7757 6.30736 26.3007 6.51425C26.8695 6.73841 27.5568 7.14243 27.8216 7.99401C28.0822 8.83197 27.7614 9.55539 27.4373 10.0702C27.1328 10.5539 26.6628 11.1033 26.1522 11.7003L25.807 12.1039C25.7257 12.1989 25.6631 12.2722 25.6099 12.3364C25.5663 12.389 25.5362 12.427 25.5146 12.4557C25.5174 12.5485 25.5293 12.6792 25.5538 12.9312L25.6057 13.4673C25.6832 14.266 25.754 14.995 25.7284 15.5692C25.7018 16.1658 25.5611 16.9642 24.8519 17.5025C24.1224 18.0563 23.3074 17.9483 22.7292 17.7826C22.1882 17.6276 21.5381 17.3281 20.841 17.0071C20.814 16.9946 20.7869 16.9821 20.7597 16.9696L20.3625 16.7867C20.2507 16.7353 20.1653 16.6959 20.091 16.6632C20.0544 16.647 20.0244 16.6342 19.9996 16.624C19.9747 16.6342 19.9447 16.647 19.9082 16.6632C19.8339 16.6959 19.7484 16.7353 19.6367 16.7867L19.2395 16.9696C19.2123 16.9821 19.1852 16.9946 19.1581 17.0071C18.4611 17.3281 17.811 17.6276 17.2699 17.7826C16.6918 17.9483 15.8767 18.0563 15.1472 17.5025C14.4381 16.9642 14.2973 16.1658 14.2708 15.5692C14.2452 14.995 14.3159 14.266 14.3934 13.4673C14.3962 13.4391 14.3989 13.4108 14.4017 13.3824L14.4454 12.9312C14.4698 12.6792 14.4817 12.5485 14.4845 12.4557C14.463 12.427 14.4328 12.389 14.3892 12.3364C14.336 12.2722 14.2734 12.1989 14.1922 12.1039L13.903 11.7657C13.8842 11.7438 13.8656 11.722 13.8469 11.7002C13.3364 11.1033 12.8663 10.5539 12.5619 10.0702C12.2378 9.55539 11.917 8.83197 12.1776 7.99401C12.4424 7.14243 13.1297 6.73841 13.6985 6.51425C14.2235 6.30736 14.9187 6.15019 15.6635 5.98179C15.6923 5.97528 15.7211 5.96876 15.7501 5.96221L16.1743 5.86622C16.2937 5.83922 16.3848 5.81857 16.4631 5.79949C16.5086 5.78842 16.5441 5.77923 16.5721 5.77149C16.59 5.74292 16.6122 5.70591 16.6405 5.6569C16.6826 5.58399 16.7301 5.49893 16.7914 5.3889L17.0099 4.997C17.0241 4.97149 17.0382 4.94606 17.0524 4.9207C17.4377 4.22923 17.792 3.59343 18.1381 3.14144ZM6.66624 13.6694C6.75319 13.8299 6.93829 14.1576 7.24212 14.3883C7.56863 14.6361 7.96055 14.7187 8.12341 14.7529C8.13969 14.7564 8.15368 14.7593 8.16509 14.7619L8.19941 14.7697L8.14493 14.8334C8.13656 14.8432 8.12647 14.8547 8.11494 14.8678C8.00066 14.998 7.7452 15.2891 7.62733 15.6681C7.51108 16.0419 7.55298 16.4248 7.57212 16.5997C7.57407 16.6175 7.57578 16.6332 7.57707 16.6465L7.57887 16.665C7.42169 16.5898 7.06537 16.425 6.66624 16.425C6.26711 16.425 5.91078 16.5898 5.75361 16.665L5.7554 16.6465C5.75669 16.6332 5.75841 16.6175 5.76036 16.5997C5.7795 16.4248 5.82139 16.0419 5.70514 15.6681C5.58728 15.2891 5.33181 14.998 5.21753 14.8678C5.206 14.8547 5.19591 14.8432 5.18754 14.8334L5.13306 14.7697L5.16738 14.7619C5.17879 14.7593 5.19278 14.7564 5.20906 14.7529C5.37193 14.7187 5.76384 14.6361 6.09036 14.3883C6.39419 14.1576 6.57929 13.8299 6.66624 13.6694ZM4.89153 13.5427L4.65505 12.4975L4.89153 13.5427ZM5.67624 17.7206C5.67659 17.7231 5.67671 17.7244 5.67669 17.7244L5.67624 17.7206ZM7.65579 17.7244C7.65576 17.7244 7.65588 17.7231 7.65624 17.7206L7.65579 17.7244ZM5.23931 11.1907C5.45376 10.9107 5.90898 10.4167 6.66624 10.4167C7.4235 10.4167 7.87872 10.9107 8.09316 11.1907C8.29496 11.4543 8.49271 11.8094 8.67466 12.1361C8.6855 12.1556 8.69628 12.175 8.707 12.1942L8.78809 12.3397L8.92891 12.3715C8.95036 12.3764 8.97199 12.3813 8.99378 12.3862C9.34527 12.4655 9.73699 12.5539 10.0459 12.6757C10.3976 12.8142 10.958 13.1167 11.174 13.8114C11.3859 14.4926 11.1105 15.0559 10.914 15.3681C10.7365 15.6501 10.4736 15.9572 10.2322 16.2393C10.2179 16.256 10.2037 16.2726 10.1895 16.2891L10.0679 16.4313L10.0873 16.6309C10.0894 16.6526 10.0915 16.6743 10.0936 16.6961C10.1304 17.0739 10.1699 17.4795 10.155 17.8124C10.1392 18.1667 10.0518 18.8077 9.47033 19.2491C8.86848 19.7059 8.2132 19.5937 7.85892 19.4922C7.54051 19.4009 7.1746 19.2322 6.84585 19.0806C6.82538 19.0712 6.80505 19.0618 6.78489 19.0525L6.66624 18.9979L6.54758 19.0525C6.52742 19.0618 6.5071 19.0712 6.48663 19.0806C6.15787 19.2322 5.79196 19.4009 5.47356 19.4922C5.11927 19.5937 4.46399 19.7059 3.86215 19.2491C3.2807 18.8077 3.19324 18.1667 3.17746 17.8124C3.16262 17.4795 3.20209 17.0739 3.23886 16.6961C3.24099 16.6743 3.2431 16.6526 3.2452 16.6309L3.26454 16.4313L3.14294 16.2891C3.12881 16.2726 3.11459 16.256 3.10029 16.2393C2.85887 15.9572 2.59598 15.6501 2.41846 15.3681C2.22193 15.0559 1.94661 14.4926 2.15843 13.8114C2.37448 13.1167 2.93488 12.8142 3.28654 12.6757C3.59549 12.5539 3.98721 12.4655 4.3387 12.3862C4.36048 12.3813 4.38212 12.3764 4.40356 12.3715L4.54438 12.3397L4.62547 12.1942C4.63619 12.175 4.64697 12.1556 4.65781 12.1362C4.83975 11.8094 5.03751 11.4543 5.23931 11.1907ZM33.3329 13.6694C33.4198 13.8299 33.6049 14.1576 33.9088 14.3883C34.2353 14.6361 34.6272 14.7187 34.7901 14.7529C34.8064 14.7564 34.8203 14.7593 34.8318 14.7619L34.8661 14.7697L34.8116 14.8334C34.8032 14.8432 34.7931 14.8547 34.7816 14.8678C34.6673 14.998 34.4119 15.2891 34.294 15.6681C34.1777 16.0419 34.2196 16.4247 34.2388 16.5997C34.2407 16.6175 34.2424 16.6332 34.2437 16.6465L34.2455 16.665C34.0884 16.5898 33.732 16.425 33.3329 16.425C32.9338 16.425 32.5775 16.5898 32.4203 16.665L32.4221 16.6465C32.4234 16.6332 32.4251 16.6175 32.427 16.5997C32.4462 16.4247 32.4881 16.0419 32.3718 15.6681C32.2539 15.2891 31.9985 14.998 31.8842 14.8678C31.8727 14.8547 31.8626 14.8432 31.8542 14.8334L31.7997 14.7697L31.834 14.7619C31.8455 14.7593 31.8594 14.7564 31.8757 14.7529C32.0386 14.7187 32.4305 14.6361 32.757 14.3883C33.0609 14.1576 33.246 13.8299 33.3329 13.6694ZM32.3429 17.7206C32.3433 17.7233 32.3434 17.7246 32.3433 17.7244L32.3429 17.7206ZM31.906 11.1907C32.1204 10.9107 32.5756 10.4167 33.3329 10.4167C34.0902 10.4167 34.5454 10.9107 34.7598 11.1907C34.9616 11.4543 35.1594 11.8094 35.3413 12.1361C35.3522 12.1556 35.3629 12.175 35.3737 12.1942L35.4548 12.3397L35.5956 12.3715C35.617 12.3764 35.6387 12.3813 35.6605 12.3862C36.0119 12.4655 36.4037 12.5539 36.7126 12.6757C37.0643 12.8143 37.6247 13.1167 37.8407 13.8114C38.0525 14.4926 37.7772 15.0559 37.5807 15.3681C37.4032 15.6501 37.1403 15.9572 36.8988 16.2393C36.8845 16.256 36.8703 16.2726 36.8562 16.2891L36.7346 16.4313L36.7539 16.6309C36.756 16.6526 36.7582 16.6743 36.7603 16.6961C36.797 17.0739 36.8365 17.4795 36.8217 17.8124C36.8059 18.1667 36.7184 18.8077 36.137 19.2491C35.5351 19.7059 34.8799 19.5937 34.5256 19.4922C34.2072 19.4009 33.8413 19.2322 33.5126 19.0806C33.4921 19.0712 33.4717 19.0618 33.4516 19.0525L33.3329 18.9979L33.2143 19.0525C33.1941 19.0618 33.1738 19.0712 33.1533 19.0806C32.8246 19.2322 32.4586 19.4009 32.1402 19.4922C31.7859 19.5937 31.1307 19.7059 30.5288 19.2491C29.9474 18.8077 29.8599 18.1667 29.8441 17.8124C29.8293 17.4795 29.8688 17.0739 29.9055 16.6961C29.9077 16.6743 29.9098 16.6526 29.9119 16.6309L29.9312 16.4313L29.8096 16.2891C29.7955 16.2726 29.7813 16.2559 29.767 16.2392C29.5255 15.9572 29.2626 15.6501 29.0851 15.3681C28.8886 15.0559 28.6133 14.4926 28.8251 13.8114C29.0411 13.1167 29.6015 12.8143 29.9532 12.6757C30.2622 12.5539 30.6539 12.4655 31.0054 12.3862C31.0272 12.3813 31.0488 12.3764 31.0702 12.3715L31.211 12.3397L31.2921 12.1942C31.3029 12.175 31.3136 12.1556 31.3245 12.1361C31.5064 11.8094 31.7042 11.4543 31.906 11.1907ZM34.3224 17.7244C34.3224 17.7243 34.3226 17.723 34.3229 17.7206L34.3224 17.7244ZM14.4728 24.0803C17.5825 23.4778 20.9114 23.6131 23.605 25.2197C23.9834 25.4453 24.338 25.7265 24.6474 26.0741C25.2739 26.7777 25.5974 27.6522 25.6127 28.529C25.9315 28.3234 26.2508 28.0951 26.5752 27.85L29.5872 25.5747C31.0948 24.4359 33.2858 24.4357 34.7937 25.5742C36.1869 26.6262 36.7424 28.5142 35.745 30.1129C35.0361 31.2492 33.9686 32.8208 32.8822 33.827C31.784 34.8441 30.221 35.6993 29.0387 36.27C27.6029 36.963 26.0522 37.3461 24.5442 37.5902C21.4622 38.0891 18.2553 38.0128 15.2079 37.385C13.6505 37.0641 12.0321 36.8973 10.4328 36.8973H6.66624C5.97588 36.8973 5.41624 36.3377 5.41624 35.6473C5.41624 34.957 5.97588 34.3973 6.66624 34.3973H10.4328C12.203 34.3973 13.9904 34.5816 15.7123 34.9364C18.4658 35.5036 21.3664 35.5721 24.1447 35.1224C25.5263 34.8987 26.8164 34.5667 27.952 34.0185C29.091 33.4688 30.3716 32.7447 31.1834 31.9928C32.0043 31.2325 32.923 29.9132 33.6239 28.7896C33.8355 28.4506 33.8062 27.9612 33.2872 27.5693C32.671 27.1041 31.7101 27.1042 31.094 27.5695L28.0821 29.8448C26.8797 30.7531 25.3997 31.7248 23.5641 32.0176C23.3789 32.0472 23.186 32.0742 22.9858 32.098C22.8903 32.1153 22.7909 32.1267 22.6883 32.1305C21.7511 32.2236 20.6658 32.2453 19.4683 32.1322C18.781 32.0673 18.2765 31.4576 18.3414 30.7703C18.4063 30.083 19.0161 29.5784 19.7034 29.6433C20.7491 29.742 21.6873 29.7202 22.4833 29.6385C22.4994 29.6369 22.5155 29.6352 22.5315 29.6335C22.5648 29.6141 22.6156 29.579 22.6822 29.5208C23.2147 29.0561 23.2622 28.2778 22.7802 27.7364C22.658 27.5992 22.5076 27.476 22.3244 27.3668C20.3558 26.1926 17.7266 25.9964 14.9483 26.5347C12.1857 27.0699 9.44108 28.3028 7.38933 29.7579C6.82621 30.1572 6.04596 30.0245 5.64661 29.4613C5.24726 28.8982 5.38002 28.118 5.94314 27.7186C8.27375 26.0658 11.3472 24.6858 14.4728 24.0803Z" fill="currentColor"/>
</svg>
