<svg viewBox="0 0 40 40" fill="none" xmlns="http://www.w3.org/2000/svg">
<path fill-rule="evenodd" clip-rule="evenodd" d="M7.08301 14.1911C7.08301 7.42111 12.9521 2.08337 19.9997 2.08337C27.0472 2.08337 32.9163 7.42111 32.9163 14.1911C32.9163 20.543 28.9782 28.0001 22.6243 30.7154C20.9563 31.4282 19.0431 31.4282 17.375 30.7154C11.0212 28.0001 7.08301 20.543 7.08301 14.1911ZM19.9997 4.58337C14.1606 4.58337 9.58301 8.96798 9.58301 14.1911C9.58301 19.7383 13.0921 26.1664 18.3574 28.4165C19.398 28.8612 20.6013 28.8612 21.6419 28.4165C26.9073 26.1664 30.4163 19.7383 30.4163 14.1911C30.4163 8.96798 25.8388 4.58337 19.9997 4.58337ZM19.9997 12.9167C18.8491 12.9167 17.9163 13.8494 17.9163 15C17.9163 16.1506 18.8491 17.0834 19.9997 17.0834C21.1503 17.0834 22.083 16.1506 22.083 15C22.083 13.8494 21.1503 12.9167 19.9997 12.9167ZM15.4163 15C15.4163 12.4687 17.4684 10.4167 19.9997 10.4167C22.531 10.4167 24.583 12.4687 24.583 15C24.583 17.5313 22.531 19.5834 19.9997 19.5834C17.4684 19.5834 15.4163 17.5313 15.4163 15ZM5.99203 24.9944C6.45541 25.5061 6.41621 26.2966 5.90447 26.7599C4.95832 27.6167 4.58301 28.4368 4.58301 29.1667C4.58301 30.4395 5.78969 32.0081 8.72752 33.3301C11.548 34.5993 15.5322 35.4167 19.9997 35.4167C24.4671 35.4167 28.4513 34.5993 31.2718 33.3301C34.2097 32.0081 35.4163 30.4395 35.4163 29.1667C35.4163 28.4368 35.041 27.6167 34.0949 26.7599C33.5831 26.2966 33.5439 25.5061 34.0073 24.9944C34.4707 24.4826 35.2612 24.4434 35.7729 24.9068C37.0446 26.0583 37.9163 27.5019 37.9163 29.1667C37.9163 32.036 35.3921 34.2175 32.2977 35.6099C29.0861 37.0552 24.7369 37.9167 19.9997 37.9167C15.2624 37.9167 10.9133 37.0552 7.70161 35.6099C4.60728 34.2175 2.08301 32.036 2.08301 29.1667C2.08301 27.5019 2.95475 26.0583 4.22643 24.9068C4.73816 24.4434 5.52865 24.4826 5.99203 24.9944Z" fill="currentColor"/>
</svg>
