<svg viewBox="0 0 40 40" fill="none" xmlns="http://www.w3.org/2000/svg">
<path fill-rule="evenodd" clip-rule="evenodd" d="M18.247 2.08338H21.7537C23.2511 2.08333 24.4998 2.08329 25.4911 2.21656C26.5374 2.35724 27.4821 2.66669 28.2412 3.42581C29.0003 4.18492 29.3098 5.12959 29.4505 6.17591C29.5838 7.16722 29.5837 8.41592 29.5837 9.91339L29.5837 12.3407C32.6477 15.0141 34.5837 18.9476 34.5837 23.3334C34.5837 31.3875 28.0545 37.9167 20.0003 37.9167C11.9462 37.9167 5.41699 31.3875 5.41699 23.3334C5.41699 18.9476 7.35299 15.0141 10.417 12.3407L10.417 9.91338C10.4169 8.41591 10.4169 7.16721 10.5502 6.17591C10.6909 5.12959 11.0003 4.18492 11.7594 3.42581C12.5185 2.66669 13.4632 2.35724 14.5095 2.21656C15.5008 2.08329 16.7495 2.08333 18.247 2.08338ZM12.917 10.5828C15.0143 9.4152 17.4296 8.75005 20.0003 8.75005C22.571 8.75005 24.9864 9.4152 27.0837 10.5828V10C27.0837 8.39336 27.081 7.31409 26.9728 6.50903C26.8694 5.73993 26.6907 5.41077 26.4735 5.19357C26.2563 4.97638 25.9271 4.79767 25.158 4.69427C24.3529 4.58603 23.2737 4.58338 21.667 4.58338H18.3337C16.727 4.58338 15.6477 4.58603 14.8426 4.69427C14.0735 4.79767 13.7444 4.97638 13.5272 5.19357C13.31 5.41077 13.1313 5.73993 13.0279 6.50903C12.9196 7.31409 12.917 8.39336 12.917 10V10.5828ZM20.0003 11.25C13.3269 11.25 7.91699 16.6599 7.91699 23.3334C7.91699 30.0068 13.3269 35.4167 20.0003 35.4167C26.6738 35.4167 32.0837 30.0068 32.0837 23.3334C32.0837 16.6599 26.6738 11.25 20.0003 11.25ZM20.0003 20.0575C19.9034 20.2253 19.7957 20.4184 19.6687 20.6462L19.5049 20.9401C19.4933 20.9609 19.4809 20.9835 19.4676 21.0078C19.3368 21.2472 19.12 21.6435 18.7586 21.9179C18.3896 22.198 17.9458 22.2944 17.6863 22.3507C17.6603 22.3564 17.6362 22.3616 17.6141 22.3666L17.2959 22.4386C17.004 22.5046 16.7662 22.5585 16.5628 22.6096C16.6951 22.7725 16.8669 22.9746 17.0904 23.2359L17.3073 23.4896C17.3227 23.5076 17.3394 23.5269 17.3572 23.5474C17.5371 23.7546 17.8276 24.0891 17.9619 24.5211C18.0946 24.9479 18.0488 25.3874 18.0199 25.6647C18.0171 25.6924 18.0143 25.7185 18.012 25.7427L17.9792 26.0811C17.9488 26.3949 17.9251 26.6453 17.9094 26.849C18.0831 26.7725 18.2807 26.6816 18.5154 26.5735L18.8133 26.4364C18.8338 26.4269 18.8563 26.4163 18.8806 26.4049C19.1197 26.2921 19.5359 26.0958 20.0003 26.0958C20.4648 26.0958 20.8809 26.2921 21.1201 26.4049C21.1444 26.4163 21.1669 26.4269 21.1874 26.4364L21.4853 26.5735C21.72 26.6816 21.9176 26.7725 22.0912 26.849C22.0755 26.6453 22.0519 26.3949 22.0215 26.0811L21.9887 25.7427C21.9863 25.7185 21.9836 25.6924 21.9807 25.6648C21.9518 25.3874 21.906 24.9479 22.0388 24.5211C22.1731 24.0891 22.4635 23.7546 22.6434 23.5474C22.6612 23.5269 22.678 23.5076 22.6934 23.4896L22.9103 23.2359C23.1338 22.9746 23.3056 22.7725 23.4378 22.6096C23.2345 22.5585 22.9967 22.5046 22.7047 22.4386L22.3865 22.3666C22.3645 22.3616 22.3403 22.3564 22.3144 22.3507C22.0548 22.2944 21.611 22.198 21.242 21.9179C20.8806 21.6435 20.6639 21.2472 20.533 21.0078C20.5197 20.9835 20.5073 20.9609 20.4958 20.9401L20.3319 20.6462C20.205 20.4184 20.0972 20.2253 20.0003 20.0575ZM18.3562 17.9994C18.6431 17.6247 19.1642 17.0834 20.0003 17.0834C20.8365 17.0834 21.3576 17.6247 21.6445 17.9994C21.9184 18.3571 22.1942 18.8521 22.477 19.3597C22.4898 19.3827 22.5027 19.4058 22.5156 19.4289L22.6794 19.7229C22.7174 19.791 22.7473 19.8447 22.7735 19.8905C22.819 19.9012 22.872 19.9132 22.9382 19.9282L23.2564 20.0002C23.2825 20.0061 23.3085 20.012 23.3346 20.0179C23.8809 20.1413 24.4239 20.264 24.8407 20.4283C25.301 20.6097 25.9248 20.9629 26.1652 21.7361C26.4014 22.4956 26.1034 23.139 25.8431 23.5525C25.6021 23.9352 25.236 24.3632 24.8611 24.8013C24.8442 24.8211 24.8272 24.8409 24.8103 24.8607L24.5934 25.1144C24.5359 25.1816 24.4926 25.2323 24.4561 25.2762C24.4611 25.3367 24.4679 25.4073 24.477 25.5016L24.5098 25.84C24.5123 25.8658 24.5148 25.8916 24.5173 25.9174C24.5743 26.5039 24.6293 27.0707 24.6091 27.5242C24.5879 27.9996 24.4738 28.7193 23.8286 29.2091C23.1629 29.7144 22.4277 29.6043 21.9615 29.4707C21.5319 29.3476 21.0243 29.1138 20.5131 28.8782C20.4886 28.8669 20.4642 28.8557 20.4397 28.8444L20.1418 28.7072C20.0861 28.6816 20.0402 28.6605 20.0003 28.6424C19.9604 28.6605 19.9146 28.6816 19.8589 28.7072L19.561 28.8444C19.5365 28.8557 19.512 28.867 19.4875 28.8782C18.9763 29.1138 18.4687 29.3476 18.0392 29.4707C17.573 29.6043 16.8378 29.7144 16.1721 29.2091C15.5268 28.7193 15.4127 27.9996 15.3915 27.5242C15.3713 27.0707 15.4264 26.5039 15.4833 25.9174C15.4858 25.8916 15.4883 25.8658 15.4909 25.84L15.5236 25.5016C15.5328 25.4073 15.5396 25.3367 15.5446 25.2762C15.5081 25.2323 15.4648 25.1816 15.4073 25.1144L15.1904 24.8608C15.1734 24.8409 15.1564 24.8211 15.1395 24.8013C14.7646 24.3631 14.3985 23.9352 14.1576 23.5525C13.8973 23.139 13.5992 22.4956 13.8354 21.7361C14.0759 20.9629 14.6997 20.6097 15.1599 20.4283C15.5767 20.264 16.1197 20.1413 16.666 20.0179C16.6921 20.012 16.7182 20.0061 16.7442 20.0002L17.0624 19.9282C17.1286 19.9132 17.1816 19.9012 17.2272 19.8905C17.2533 19.8447 17.2832 19.791 17.3212 19.7229L17.4851 19.4289C17.498 19.4058 17.5108 19.3827 17.5237 19.3597C17.8065 18.8521 18.0823 18.3571 18.3562 17.9994Z" fill="currentColor"/>
</svg>
