<svg viewBox="0 0 40 40" fill="none" xmlns="http://www.w3.org/2000/svg">
<path fill-rule="evenodd" clip-rule="evenodd" d="M18.7302 4.66484C17.7068 4.80009 16.443 5.09037 14.6453 5.50522L12.5984 5.9776C11.08 6.32799 10.0344 6.5709 9.2357 6.84501C8.46466 7.10964 8.02846 7.37051 7.6993 7.69967C7.37015 8.02883 7.10927 8.46503 6.84464 9.23607C6.57053 10.0347 6.32762 11.0804 5.97723 12.5987L5.50486 14.6457C5.09 16.4434 4.79972 17.7071 4.66447 18.7305C4.53271 19.7276 4.56309 20.4021 4.73897 21.0154C4.91485 21.6287 5.24662 22.2168 5.88677 22.9924C6.54386 23.7886 7.4598 24.7064 8.76437 26.011L11.8138 29.0604C14.0796 31.3262 15.6919 32.9347 17.078 33.9923C18.4353 35.0279 19.4278 35.4167 20.4369 35.4167C21.446 35.4167 22.4385 35.0279 23.7957 33.9923C25.1819 32.9347 26.7942 31.3262 29.06 29.0604C31.3258 26.7946 32.9344 25.1822 33.992 23.7961C35.0275 22.4388 35.4163 21.4463 35.4163 20.4372C35.4163 19.4282 35.0275 18.4357 33.992 17.0784C32.9344 15.6923 31.3258 14.0799 29.06 11.8141L26.0106 8.76474C24.706 7.46016 23.7882 6.54423 22.9921 5.88713C22.2164 5.24698 21.6283 4.91522 21.015 4.73934C20.4018 4.56346 19.7272 4.53308 18.7302 4.66484ZM18.4026 2.18639C19.5982 2.02839 20.6465 2.03285 21.7042 2.33622C22.762 2.63958 23.6533 3.1914 24.5834 3.95901C25.4825 4.70104 26.4838 5.70235 27.7347 6.95326L30.8944 10.1129C33.0787 12.2973 34.8081 14.0267 35.9795 15.5619C37.1848 17.1416 37.9163 18.6618 37.9163 20.4372C37.9163 22.2127 37.1848 23.7329 35.9795 25.3126C34.8081 26.8478 33.0787 28.5772 30.8943 30.7616L30.7612 30.8947C28.5769 33.0791 26.8475 34.8085 25.3122 35.9799C23.7325 37.1851 22.2123 37.9167 20.4369 37.9167C18.6614 37.9167 17.1412 37.1851 15.5616 35.9799C14.0263 34.8085 12.2969 33.0791 10.1125 30.8947L6.95293 27.7351C5.702 26.4842 4.70069 25.4829 3.95864 24.5838C3.19104 23.6537 2.63921 22.7624 2.33585 21.7046C2.03249 20.6468 2.02803 19.5985 2.18602 18.403C2.33876 17.2473 2.65718 15.8675 3.05499 14.1437L3.5561 11.9723C3.88804 10.5338 4.15873 9.3607 4.48003 8.42452C4.81559 7.44681 5.23823 6.62521 5.93154 5.9319C6.62484 5.2386 7.44644 4.81596 8.42415 4.4804C9.36033 4.15909 10.5334 3.8884 11.9719 3.55646L14.1434 3.05536C15.8671 2.65755 17.2469 2.33912 18.4026 2.18639ZM15.8179 13.3254C15.0043 12.5118 13.6852 12.5118 12.8716 13.3254C12.058 14.139 12.058 15.4581 12.8716 16.2717C13.6852 17.0853 15.0043 17.0853 15.8179 16.2717C16.6315 15.4581 16.6315 14.139 15.8179 13.3254ZM11.1038 11.5576C12.8937 9.76774 15.7957 9.76774 17.5856 11.5576C19.3755 13.3475 19.3755 16.2495 17.5856 18.0395C15.7957 19.8294 12.8937 19.8294 11.1038 18.0395C9.31392 16.2495 9.31392 13.3475 11.1038 11.5576ZM21.6545 20.1783C21.3597 20.1755 20.9721 20.3078 20.6398 20.6402C19.9939 21.2861 20.1638 21.9319 20.3452 22.1133C20.5266 22.2947 21.1724 22.4646 21.8183 21.8187C23.1251 20.512 25.3812 20.0783 26.827 21.5241C27.9486 22.6457 27.9391 24.255 27.2683 25.5304C27.6036 26.0173 27.5546 26.689 27.1216 27.122C26.6901 27.5535 26.0215 27.6036 25.535 27.2721C24.7735 27.6768 23.9072 27.8285 23.0813 27.6588C22.4051 27.5198 21.9696 26.859 22.1085 26.1827C22.2475 25.5065 22.9084 25.071 23.5846 25.2099C23.8798 25.2706 24.3559 25.1737 24.7646 24.765C25.4105 24.1191 25.2406 23.4732 25.0592 23.2918C24.8778 23.1104 24.232 22.9406 23.5861 23.5865C22.2794 24.8932 20.0232 25.3269 18.5774 23.8811C17.4558 22.7595 17.4653 21.1502 18.1361 19.8748C17.8009 19.3879 17.8498 18.7162 18.2828 18.2832C18.7142 17.8517 19.3826 17.8016 19.8691 18.1328C20.4355 17.8318 21.0579 17.6726 21.6781 17.6784C22.3684 17.6849 22.9227 18.2498 22.9162 18.9401C22.9097 19.6305 22.3448 20.1848 21.6545 20.1783Z" fill="currentColor"/>
</svg>
