<svg
  viewBox="0 0 40 40"
  fill="none"
  xmlns="http://www.w3.org/2000/svg"
>
<path fill-rule="evenodd" clip-rule="evenodd" d="M18.3555 7.99943C18.6424 7.62472 19.1635 7.08337 19.9997 7.08337C20.8358 7.08337 21.3569 7.62472 21.6438 7.99943C21.9177 8.35706 22.1935 8.85212 22.4763 9.35966L22.6788 9.72286C22.7168 9.79103 22.7467 9.84466 22.7728 9.89053C22.8184 9.90123 22.8714 9.91323 22.9376 9.92822L23.3339 10.0179C23.8803 10.1413 24.4233 10.264 24.8401 10.4283C25.3003 10.6097 25.9241 10.9629 26.1646 11.7361C26.4008 12.4956 26.1027 13.139 25.8424 13.5525C25.6015 13.9352 25.2353 14.3631 24.8605 14.8013L24.5927 15.1144C24.5352 15.1816 24.4919 15.2323 24.4554 15.2761C24.4604 15.3367 24.4672 15.4072 24.4764 15.5016L24.5167 15.9174C24.5736 16.5039 24.6287 17.0707 24.6085 17.5242C24.5873 17.9996 24.4732 18.7192 23.8279 19.2091C23.1622 19.7144 22.427 19.6043 21.9608 19.4707C21.5313 19.3476 21.0237 19.1138 20.5125 18.8782L20.1411 18.7072C20.0854 18.6816 20.0396 18.6605 19.9997 18.6424C19.9598 18.6605 19.914 18.6816 19.8582 18.7072L19.4869 18.8782C18.9756 19.1138 18.4681 19.3476 18.0385 19.4707C17.5723 19.6043 16.8371 19.7144 16.1714 19.2091C15.5262 18.7192 15.4121 17.9996 15.3909 17.5242C15.3707 17.0707 15.4257 16.5039 15.4827 15.9174L15.523 15.5016C15.5321 15.4072 15.5389 15.3367 15.5439 15.2761C15.5074 15.2323 15.4641 15.1816 15.4066 15.1144L15.1389 14.8013C14.764 14.3631 14.3979 13.9352 14.1569 13.5525C13.8966 13.139 13.5986 12.4956 13.8348 11.7361C14.0752 10.9629 14.699 10.6097 15.1593 10.4283C15.5761 10.264 16.1191 10.1413 16.6654 10.0179L17.0618 9.92822C17.128 9.91323 17.181 9.90123 17.2265 9.89053C17.2527 9.84466 17.2826 9.79103 17.3206 9.72286L17.523 9.35964C17.8058 8.85211 18.0816 8.35705 18.3555 7.99943ZM19.9997 10.0575C19.9028 10.2253 19.795 10.4184 19.6681 10.6462L19.5042 10.9401L19.467 11.0078C19.3361 11.2472 19.1194 11.6435 18.758 11.9179C18.389 12.198 17.9452 12.2944 17.6857 12.3507L17.6135 12.3666L17.2953 12.4386C17.0033 12.5046 16.7655 12.5585 16.5622 12.6096C16.6944 12.7724 16.8662 12.9746 17.0897 13.2359L17.3066 13.4896L17.3566 13.5474C17.5365 13.7546 17.8269 14.0891 17.9612 14.5211C18.0939 14.9479 18.0482 15.3874 18.0193 15.6647L18.0113 15.7427L17.9785 16.0811C17.9481 16.3949 17.9245 16.6453 17.9088 16.849C18.0824 16.7725 18.28 16.6816 18.5147 16.5735L18.8126 16.4364L18.8799 16.4049C19.1191 16.2921 19.5352 16.0958 19.9997 16.0958C20.4641 16.0958 20.8803 16.2921 21.1194 16.4049L21.1867 16.4364L21.4846 16.5735C21.7193 16.6816 21.9169 16.7725 22.0906 16.849C22.0748 16.6453 22.0512 16.3949 22.0208 16.0811L21.988 15.7427L21.9801 15.6647C21.9512 15.3874 21.9054 14.9479 22.0381 14.5211C22.1724 14.0891 22.4629 13.7546 22.6428 13.5474L22.6927 13.4896L22.9096 13.2359C23.1331 12.9746 23.3049 12.7724 23.4372 12.6096C23.2338 12.5585 22.996 12.5046 22.7041 12.4386L22.3859 12.3666L22.3137 12.3507C22.0542 12.2944 21.6104 12.198 21.2414 11.9179C20.88 11.6435 20.6632 11.2472 20.5324 11.0078L20.4951 10.9401L20.3313 10.6462C20.2043 10.4184 20.0966 10.2253 19.9997 10.0575ZM17.8986 17.5192C17.8985 17.5193 17.8981 17.5176 17.8975 17.514L17.8986 17.5192ZM22.1008 17.5192L22.1019 17.514C22.1012 17.5176 22.1008 17.5193 22.1008 17.5192Z" fill="#002561"/>
<path fill-rule="evenodd" clip-rule="evenodd" d="M12.497 2.6787C14.4352 2.35169 16.9537 2.08337 19.9999 2.08337C23.0461 2.08337 25.5647 2.35169 27.5029 2.6787L27.7276 2.71642C29.4113 2.99826 30.8108 3.23252 31.905 4.58018C32.6068 5.4445 32.8332 6.37859 32.8853 7.42208L33.7048 7.69524C34.4767 7.95248 35.1533 8.17795 35.69 8.42765C36.2702 8.69758 36.802 9.04527 37.2085 9.60929C37.615 10.1733 37.7767 10.7877 37.8493 11.4236C37.9164 12.0117 37.9163 12.7248 37.9163 13.5385L37.9163 13.7805C37.9163 14.4502 37.9163 15.0417 37.8669 15.5364C37.8133 16.0725 37.6946 16.5937 37.3982 17.0974C37.1018 17.6012 36.7038 17.958 36.2612 18.2652C35.8527 18.5487 35.3357 18.8359 34.7502 19.1611L30.3491 21.6062C29.4501 23.3751 28.2151 24.9522 26.5166 26.0914C25.0587 27.0691 23.3132 27.688 21.2497 27.8645V31.25H23.6333C25.0237 31.25 26.2207 32.2314 26.4934 33.5947L26.8578 35.4167H29.9997C30.69 35.4167 31.2497 35.9764 31.2497 36.6667C31.2497 37.3571 30.69 37.9167 29.9997 37.9167H9.99967C9.30932 37.9167 8.74967 37.3571 8.74967 36.6667C8.74967 35.9764 9.30932 35.4167 9.99967 35.4167H13.1416L13.506 33.5947C13.7787 32.2314 14.9757 31.25 16.366 31.25H18.7497V27.8645C16.6864 27.6879 14.941 27.069 13.4833 26.0914C11.7849 24.9523 10.55 23.3754 9.65097 21.6067L5.24903 19.1611C4.66361 18.8359 4.14656 18.5487 3.73812 18.2652C3.29547 17.958 2.89746 17.6012 2.60106 17.0974C2.30466 16.5937 2.18601 16.0725 2.13242 15.5364C2.08298 15.0417 2.083 14.4502 2.08302 13.7805L2.08301 13.5384C2.08294 12.7248 2.08288 12.0117 2.15001 11.4236C2.22259 10.7877 2.38427 10.1733 2.79078 9.60929C3.19729 9.04527 3.72905 8.69758 4.30929 8.42765C4.84602 8.17795 5.52256 7.95248 6.29444 7.69524L7.11453 7.42188C7.16672 6.37847 7.39314 5.44445 8.09488 4.58018C9.18911 3.23252 10.5886 2.99826 12.2723 2.71642L12.497 2.6787ZM15.6911 35.4167H24.3083L24.0419 34.085C24.003 33.8902 23.832 33.75 23.6333 33.75H16.366C16.1674 33.75 15.9964 33.8902 15.9574 34.085L15.6911 35.4167ZM7.16984 10.0387L7.14716 10.0462C6.2948 10.3304 5.75571 10.512 5.36379 10.6944C5.00101 10.8631 4.88429 10.9803 4.8189 11.071C4.75352 11.1618 4.67926 11.3095 4.63389 11.7071C4.58487 12.1365 4.58299 12.7054 4.58302 13.6039L4.58302 13.7248C4.58304 14.4667 4.58449 14.9321 4.62003 15.2878C4.6528 15.6156 4.70681 15.7465 4.75573 15.8296C4.80464 15.9127 4.8928 16.0235 5.1635 16.2114C5.45712 16.4151 5.86323 16.6424 6.51182 17.0027L8.28798 17.9895C7.57533 15.373 7.28913 12.5725 7.16984 10.0387ZM31.712 17.9891C32.4245 15.3728 32.7107 12.5725 32.83 10.0389L32.8521 10.0462C33.7045 10.3304 34.2436 10.512 34.6355 10.6944C34.9983 10.8631 35.115 10.9803 35.1804 11.071C35.2458 11.1618 35.32 11.3095 35.3654 11.7071C35.4144 12.1365 35.4163 12.7054 35.4163 13.6039L35.4163 13.7248C35.4162 14.4667 35.4148 14.9321 35.3792 15.2878C35.3465 15.6156 35.2925 15.7465 35.2435 15.8296C35.1946 15.9127 35.1065 16.0235 34.8358 16.2114C34.5422 16.4151 34.136 16.6424 33.4875 17.0027L31.712 17.9891ZM19.9999 4.58337C17.101 4.58337 14.7217 4.83868 12.9129 5.14386C10.9014 5.48325 10.4789 5.61021 10.0357 6.15601C9.59895 6.69391 9.55747 7.20265 9.64714 9.46124C9.7966 13.2257 10.2932 17.2879 11.8311 20.3774C12.5902 21.9024 13.5827 23.1478 14.8758 24.0151C16.1606 24.8768 17.8182 25.4167 19.9999 25.4167C22.1817 25.4167 23.8393 24.8768 25.124 24.0151C26.4171 23.1478 27.4097 21.9024 28.1688 20.3774C29.7067 17.2879 30.2033 13.2257 30.3527 9.46124C30.4424 7.20265 30.4009 6.69391 29.9642 6.15601C29.521 5.61021 29.0984 5.48325 27.0869 5.14386C25.2782 4.83868 22.8989 4.58337 19.9999 4.58337Z" fill="currentColor"/>
</svg>
