<svg viewBox="0 0 21 20" fill="none" xmlns="http://www.w3.org/2000/svg">
    <path d="M10.82 0C5.30001 0 0.820007 4.48 0.820007 10C0.820007 15.52 5.30001 20 10.82 20C16.34 20 20.82 15.52 20.82 10C20.82 4.48 16.34 0 10.82 0ZM15.46 6.8C15.31 8.38 14.66 12.22 14.33 13.99C14.19 14.74 13.91 14.99 13.65 15.02C13.07 15.07 12.63 14.64 12.07 14.27C11.19 13.69 10.69 13.33 9.84001 12.77C8.85001 12.12 9.49001 11.76 10.06 11.18C10.21 11.03 12.77 8.7 12.82 8.49C12.827 8.45819 12.826 8.42517 12.8173 8.3938C12.8086 8.36244 12.7924 8.33367 12.77 8.31C12.71 8.26 12.63 8.28 12.56 8.29C12.47 8.31 11.07 9.24 8.34001 11.08C7.94001 11.35 7.58001 11.49 7.26001 11.48C6.90001 11.47 6.22001 11.28 5.71001 11.11C5.08001 10.91 4.59001 10.8 4.63001 10.45C4.65001 10.27 4.90001 10.09 5.37001 9.9C8.29001 8.63 10.23 7.79 11.2 7.39C13.98 6.23 14.55 6.03 14.93 6.03C15.01 6.03 15.2 6.05 15.32 6.15C15.42 6.23 15.45 6.34 15.46 6.42C15.45 6.48 15.47 6.66 15.46 6.8Z" fill="currentColor"/>
</svg>
