<svg viewBox="0 0 21 20" fill="none" xmlns="http://www.w3.org/2000/svg">
<path d="M17.92 2.91006C17.0032 1.98399 15.9112 1.24973 14.7076 0.750111C13.5041 0.250494 12.2131 -0.00448012 10.91 5.95696e-05C5.44998 5.95696e-05 0.999983 4.45006 0.999983 9.91006C0.999983 11.6601 1.45998 13.3601 2.31998 14.8601L0.919983 20.0001L6.16998 18.6201C7.61998 19.4101 9.24998 19.8301 10.91 19.8301C16.37 19.8301 20.82 15.3801 20.82 9.92006C20.82 7.27006 19.79 4.78006 17.92 2.91006ZM10.91 18.1501C9.42998 18.1501 7.97998 17.7501 6.70998 17.0001L6.40998 16.8201L3.28998 17.6401L4.11998 14.6001L3.91998 14.2901C3.09773 12.977 2.66112 11.4593 2.65998 9.91006C2.65998 5.37006 6.35998 1.67006 10.9 1.67006C13.1 1.67006 15.17 2.53006 16.72 4.09006C17.4875 4.85402 18.0957 5.76272 18.5094 6.76348C18.9231 7.76425 19.134 8.83717 19.13 9.92006C19.15 14.4601 15.45 18.1501 10.91 18.1501ZM15.43 11.9901C15.18 11.8701 13.96 11.2701 13.74 11.1801C13.51 11.1001 13.35 11.0601 13.18 11.3001C13.01 11.5501 12.54 12.1101 12.4 12.2701C12.26 12.4401 12.11 12.4601 11.86 12.3301C11.61 12.2101 10.81 11.9401 9.86998 11.1001C9.12998 10.4401 8.63998 9.63006 8.48998 9.38006C8.34998 9.13006 8.46998 9.00006 8.59998 8.87006C8.70998 8.76006 8.84998 8.58006 8.96998 8.44006C9.08998 8.30006 9.13998 8.19006 9.21998 8.03006C9.29998 7.86006 9.25998 7.72006 9.19998 7.60006C9.13998 7.48006 8.63998 6.26006 8.43998 5.76006C8.23998 5.28006 8.02998 5.34006 7.87998 5.33006H7.39998C7.22998 5.33006 6.96998 5.39006 6.73998 5.64006C6.51998 5.89006 5.87998 6.49006 5.87998 7.71006C5.87998 8.93006 6.76998 10.1101 6.88998 10.2701C7.00998 10.4401 8.63998 12.9401 11.12 14.0101C11.71 14.2701 12.17 14.4201 12.53 14.5301C13.12 14.7201 13.66 14.6901 14.09 14.6301C14.57 14.5601 15.56 14.0301 15.76 13.4501C15.97 12.8701 15.97 12.3801 15.9 12.2701C15.83 12.1601 15.68 12.1101 15.43 11.9901Z" fill="currentColor"/>
</svg>
